<svg width="763" height="130" viewBox="0 0 763 130" fill="none" xmlns="http://www.w3.org/2000/svg">
<mask id="mask0_140_168" style="mask-type:alpha" maskUnits="userSpaceOnUse" x="0" y="0" width="763" height="130">
<rect width="763" height="129.246" fill="#FBFBFB"/>
</mask>
<g mask="url(#mask0_140_168)">
<path d="M63.6489 94.6787C52.9165 106.491 36.529 114.04 18.1667 114.04C-14.1624 114.04 -40.3704 90.639 -40.3704 61.7719C-40.3704 32.9048 -14.1624 9.50342 18.1667 9.50342C49.5586 9.50342 75.1792 31.5677 76.6381 59.2757C87.3705 47.4635 103.758 39.9142 122.12 39.9142C154.449 39.9142 180.657 63.3155 180.657 92.1826C180.657 121.05 154.449 144.451 122.12 144.451C90.7284 144.451 65.1079 122.387 63.6489 94.6787Z" fill="#C995E8"/>
<path d="M540.963 97.8846C540.963 126.752 514.755 150.153 482.426 150.153C450.097 150.153 423.889 126.752 423.889 97.8846C423.889 69.0175 450.097 45.6162 482.426 45.6162C514.755 45.6162 540.963 69.0175 540.963 97.8846Z" fill="#C995E8"/>
<path d="M349.204 167.259C381.533 167.259 407.741 143.858 407.741 114.991C407.741 86.1236 381.533 62.7222 349.204 62.7222C316.875 62.7222 290.667 86.1236 290.667 114.991C290.667 143.858 316.875 167.259 349.204 167.259Z" fill="#C995E8"/>
<path d="M748.87 67.4739C748.87 96.341 722.662 119.742 690.333 119.742C677.878 119.742 666.331 116.269 656.841 110.347C651.371 134.151 627.777 152.054 599.5 152.054C567.171 152.054 540.963 128.652 540.963 99.7853C540.963 70.9182 567.171 47.5168 599.5 47.5168C611.956 47.5168 623.502 50.9904 632.992 56.9118C638.462 33.108 662.056 15.2054 690.333 15.2054C722.662 15.2054 748.87 38.6068 748.87 67.4739Z" fill="#C995E8"/>
<path d="M59.0417 151.103C67.9816 151.103 76.5417 149.573 84.4428 146.774C93.7166 167.732 115.679 182.464 141.296 182.464C165.6 182.464 186.615 169.204 196.625 149.947C209.393 160.712 226.257 167.259 244.745 167.259C255.741 167.259 266.163 164.943 275.489 160.802C283.082 190.671 311.623 212.875 345.671 212.875C378.15 212.875 405.617 192.671 414.671 164.883C419.805 166.426 425.276 167.259 430.954 167.259C445.727 167.259 459.102 161.62 468.782 152.502C481.986 166.235 501.069 174.862 522.292 174.862C528.353 174.862 534.24 174.158 539.866 172.833C552.623 183.552 569.45 190.067 587.893 190.067C609.456 190.067 628.809 181.162 642.032 167.045C651.175 171.253 661.402 173.694 672.212 173.898C685.43 187.899 704.702 196.72 726.162 196.72C766.016 196.72 798.324 166.298 798.324 128.771C798.324 91.7055 766.807 61.5719 727.631 60.8353C714.413 46.8342 695.141 38.0135 673.681 38.0135C652.118 38.0135 632.765 46.9184 619.542 61.0356C609.986 56.6376 599.246 54.1692 587.893 54.1692C581.832 54.1692 575.945 54.8729 570.32 56.1984C557.562 45.479 540.735 38.9638 522.292 38.9638C495.093 38.9638 471.41 53.1322 459.111 74.0583C450.932 69.2815 441.285 66.5236 430.954 66.5236C412.419 66.5236 396.087 75.3997 386.489 88.8839C374.88 81.373 360.821 76.9772 345.671 76.9772C334.676 76.9772 324.254 79.293 314.927 83.4348C307.335 53.5654 278.794 31.3611 244.745 31.3611C213.2 31.3611 186.382 50.4206 176.572 76.977C166.582 70.3892 154.418 66.5236 141.296 66.5236C137.195 66.5236 133.187 66.9012 129.31 67.6217C121.849 37.5796 93.2202 15.2054 59.0417 15.2054C19.1877 15.2054 -13.1204 45.6272 -13.1204 83.1544C-13.1204 120.682 19.1877 151.103 59.0417 151.103Z" fill="#E2BDFF"/>
</g>
</svg>
