<svg width="22" height="22" viewBox="0 0 22 22" fill="none" xmlns="http://www.w3.org/2000/svg">
<path d="M22 11C22 4.92483 17.0751 -3.62396e-05 11 -3.62396e-05C4.92486 -3.62396e-05 0 4.92483 0 11C0 16.4904 4.02254 21.0411 9.28125 21.8663V14.1797H6.48828V11H9.28125V8.57653C9.28125 5.81965 10.9235 4.29684 13.4361 4.29684C14.6396 4.29684 15.8984 4.51168 15.8984 4.51168V7.21871H14.5114C13.1449 7.21871 12.7188 8.06664 12.7188 8.93654V11H15.7695L15.2818 14.1797H12.7188V21.8663C17.9775 21.0411 22 16.4904 22 11Z" fill="white"/>
</svg>
