<svg width="286" height="312" viewBox="0 0 286 312" fill="none" xmlns="http://www.w3.org/2000/svg">
<path fill-rule="evenodd" clip-rule="evenodd" d="M66.8841 177.386C69.7838 166.789 79.4823 159 91 159C98.4313 159 105.689 162.626 110.413 167.868C111.349 168.907 113.075 168.846 113.801 167.651C114.221 166.959 114.171 166.075 113.638 165.466C108.25 159.31 99.7341 155 91 155C81.6564 155 73.3449 159.419 68.0412 166.281C67.8885 166.15 67.7104 166.041 67.5088 165.963C64.2505 164.695 60.7064 164 57 164C40.9837 164 28 176.984 28 193C28 195.192 28.2431 197.327 28.7039 199.379C28.7278 199.486 28.76 199.587 28.7998 199.683C19.9665 203.785 13.5444 212.204 12.2428 222.23C11.8816 222.202 11.502 222.285 11.1432 222.507C4.45503 226.65 0 234.055 0 242.5C0 255.479 10.5213 266 23.5 266C25.5781 266 27.5933 265.73 29.5123 265.224C29.6179 265.196 29.7183 265.16 29.8131 265.116C33.9183 276.144 44.5417 284 57 284C65.4286 284 73.0174 280.404 78.316 274.663C82 286.448 93.0012 295 106 295C109.83 295 113.487 294.257 116.834 292.908C116.862 292.972 116.893 293.035 116.929 293.097C123.391 304.39 135.557 312 149.5 312C162.296 312 173.595 305.591 180.362 295.808C180.456 295.672 180.529 295.531 180.583 295.386C184.037 296.436 187.703 297 191.5 297C203.538 297 214.251 291.328 221.112 282.511C221.217 282.562 221.328 282.604 221.447 282.637C224.646 283.525 228.018 284 231.5 284C250.051 284 265.456 270.529 268.467 252.836C268.524 252.499 268.492 252.178 268.39 251.89C278.589 248.739 286 239.235 286 228C286 219.354 281.611 211.733 274.939 207.244C274.968 207.122 274.985 206.994 274.988 206.861C274.996 206.575 275 206.288 275 206C275 188.879 261.121 175 244 175C242.38 175 240.477 175.074 238.793 175.293C238.004 175.395 237.388 176.002 237.216 176.778C236.89 178.245 238.245 179.562 239.732 179.34C241.167 179.125 242.65 179 244 179C258.602 179 270.496 190.591 270.984 205.073C268.506 203.993 265.819 203.302 263 203.079C261.899 202.992 261 203.895 261 205C261 206.105 261.898 206.99 262.998 207.094C273.659 208.1 282 217.076 282 228C282 239.598 272.598 249 261 249C258.074 249 255.288 248.402 252.757 247.321C251.758 246.894 250.567 247.221 250.024 248.162C249.462 249.136 249.808 250.389 250.835 250.847C253.941 252.231 257.381 253 261 253C262.158 253 263.298 252.921 264.414 252.769C261.479 268.274 247.859 280 231.5 280C228.747 280 226.072 279.668 223.512 279.042C224.757 277.007 225.813 274.844 226.657 272.578C227.13 271.305 226.153 270 224.795 270C223.916 270 223.141 270.567 222.829 271.389C218.032 284.022 205.815 293 191.5 293C182.227 293 173.834 289.232 167.769 283.145C166.926 282.299 165.532 282.285 164.736 283.175C164.06 283.929 164.056 285.075 164.766 285.797C168.165 289.253 172.229 292.052 176.751 293.988C170.673 302.472 160.732 308 149.5 308C137.119 308 126.307 301.284 120.508 291.296C120.496 291.274 120.482 291.252 120.469 291.231C120.455 291.208 120.44 291.186 120.425 291.164C124.721 288.695 128.325 285.159 130.875 280.916C131.482 279.907 130.993 278.623 129.901 278.183C128.938 277.796 127.846 278.208 127.302 279.091C122.902 286.237 115.007 291 106 291C92.1929 291 81 279.807 81 266C81 264.799 81.0847 263.617 81.2485 262.462C81.4274 261.198 80.4922 260 79.2164 260C78.2869 260 77.4772 260.65 77.3364 261.569C77.1149 263.014 77 264.493 77 266C77 267.449 77.1063 268.874 77.3116 270.266C76.9028 270.386 76.5215 270.626 76.2298 270.976C71.644 276.49 64.7319 280 57 280C43.866 280 33.0976 269.872 32.0788 257C31.9917 255.899 31.1046 255 30 255C28.8954 255 27.9928 255.898 28.0679 257C28.1695 258.492 28.3838 259.952 28.7025 261.373C28.5222 261.374 28.3399 261.396 28.1598 261.44C26.6667 261.806 25.106 262 23.5 262C12.7304 262 4 253.27 4 242.5C4 236.027 7.15413 230.29 12.0093 226.744C12.0853 229.763 12.623 232.668 13.5543 235.391C13.8734 236.324 14.8695 236.819 15.8248 236.575C17.0067 236.274 17.6311 234.985 17.2496 233.827C16.4387 231.365 16 228.734 16 226C16 212.193 27.1929 201 41 201C44.651 201 48.1192 201.783 51.246 203.189C52.2395 203.636 53.4352 203.309 53.9797 202.365C54.5401 201.394 54.1969 200.145 53.1796 199.674C49.4764 197.958 45.35 197 41 197C38.0614 197 35.225 197.437 32.552 198.25L32.5483 198.232C32.189 196.545 32 194.794 32 193C32 179.193 43.1929 168 57 168C60.0971 168 63.0627 168.563 65.8 169.593L65.8217 169.601C64.5695 171.786 63.5935 174.149 62.9413 176.643C62.6227 177.862 63.5819 179 64.8414 179C65.8064 179 66.6295 178.317 66.8841 177.386ZM173.308 191.581C173.8 190.967 174.273 190.379 174.671 189.838C179.56 183.191 188.37 180.225 196.429 179.924C198.025 179.864 199.029 178.006 198.08 176.722C197.717 176.229 197.135 175.944 196.524 175.976C187.536 176.449 177.118 179.76 171.449 187.468C170.77 188.39 170.66 189.447 170.55 190.513C170.466 191.312 170.383 192.116 170.058 192.871C170.021 192.956 170 193.048 170 193.142C170 193.841 171.299 194.186 171.714 193.623C172.224 192.931 172.778 192.241 173.308 191.581Z" fill="#50033B"/>
<path d="M98 216C93.7113 216 90.1232 219 89.2195 223.016C88.977 224.093 88.1046 225 87 225C85.8954 225 84.9838 224.099 85.1517 223.007C86.1106 216.774 91.4978 212 98 212C101.157 212 104.625 213.125 106.988 214.996C107.449 215.361 107.617 215.971 107.477 216.541C107.122 217.977 104.892 218.436 103.637 217.653C101.969 216.612 99.937 216 98 216Z" fill="#50033B"/>
<path d="M191.842 226.508C190.888 220.551 185.726 216 179.5 216C177.037 216 174.74 216.712 172.805 217.942C171.791 218.587 170.391 218.441 169.715 217.448C169.153 216.623 169.293 215.497 170.114 214.928C172.778 213.082 176.013 212 179.5 212C187.937 212 194.895 218.332 195.88 226.504C196.013 227.6 195.105 228.5 194 228.5C192.895 228.5 192.017 227.598 191.842 226.508Z" fill="#50033B"/>
<path d="M82 209C80.3722 209 78.8453 209.432 77.5279 210.188C76.4154 210.826 74.8696 210.637 74.2482 209.515C73.8122 208.727 73.9796 207.729 74.7251 207.225C76.8012 205.82 79.3048 205 82 205C87.3445 205 91.9357 208.225 93.9336 212.835C94.4185 213.954 93.5962 215.132 92.3862 215.283C91.3853 215.408 90.4642 214.771 90.0013 213.875C88.5055 210.98 85.4839 209 82 209Z" fill="#50033B"/>
<path d="M128.5 124.5C124.5 118.167 117.4 101.3 121 84.5C122.564 77.2023 121.703 68.2917 119.563 59M101 9.5C106.395 21.3903 115.4 40.9169 119.563 59M195 2C193.886 8.84237 192.592 16.5545 191.294 24.5M119.563 59C112.542 67.6667 100.6 92.2 109 121C117.4 149.8 115.417 172 109 183C105.5 189 99.2 202 104 212C108.8 222 111 227 111.5 238.5C112 250 119.4 265.2 135 266C138 266.167 144.4 265 146 259M146 259C147 255.167 146.8 247 138 245C138.333 242 138 235.4 134 233M146 259C147.833 259.333 152 259.5 155 256.5C157.316 254.184 157.546 249.782 155 246.515M151 233.5C154.6 238.3 152.5 242.5 152 244C153.254 244.684 154.248 245.55 155 246.515M155 246.515C156 248.132 161.25 249.534 163.65 245.534C165.888 241.803 164.424 239.167 162.706 237.861M158 231C160.5 232 161 235 161 237C161.508 237.127 162.121 237.417 162.706 237.861M162.706 237.861C163.804 238.074 166.4 238.1 168 236.5C169.677 234.823 170.651 231.74 166.5 229.019M162 222.5C164.5 224 164 226.333 163.5 227.5C164.711 227.984 165.701 228.495 166.5 229.019M166.5 229.019C168.333 229.013 171.2 229.2 172 226C172.5 224 172 222 170 219.5C168.4 217.5 167.667 212.333 168.5 209.5C172 190 170.833 175.5 171 160.5C169.4 144.1 171.963 125 177.5 118.5C178.789 116.987 180.229 114.331 181.497 111M191.294 24.5C187.154 49.8428 182.977 77.5597 184.5 87C185.827 95.2295 183.998 104.428 181.497 111M191.294 24.5C202.696 22 225.4 26 225 62C224.868 73.9227 222.485 86.5648 224.5 98C225.808 105.423 229.757 112.496 232 119C236.734 132.729 241 141.5 241 150.5C241.167 153.833 241.7 158.4 238.5 164C238.667 174.5 238.5 191.5 222 192.5C218.893 192.5 215.27 190.284 214.374 186M215.5 169C213 172 213.5 176 215.5 178C214.163 181.176 213.925 183.849 214.374 186M214.374 186C213.583 187.333 211.5 190.5 207 189.5C201.543 188.287 202.5 181.5 206 178M206 178C205.667 177 203.5 174 206 170M206 178C203.833 179.333 198.071 181.5 196.5 176C195.214 171.5 198 169.5 199.5 169M199.5 169C198.833 168 197.5 165 199.5 162M199.5 169C198.167 169 195.5 169 194 168C191.336 166.224 191.5 161 194 159.5M194 159.5C193.333 158.333 192.5 155.5 194.5 153.5M194 159.5C191.5 160.167 187 160.5 185.5 157C184.247 154.077 185.31 151.505 187 149.664M190 147.5C188.76 148.12 187.76 148.837 187 149.664M187 149.664C186.998 140.609 185.894 120.2 181.497 111" stroke="#A47E76" stroke-width="4" stroke-linecap="round"/>
</svg>
