<svg width="22" height="24" viewBox="0 0 22 24" fill="none" xmlns="http://www.w3.org/2000/svg">
<path fill-rule="evenodd" clip-rule="evenodd" d="M18.7945 4.15924C16.7267 2.08876 13.9765 0.94795 11.0462 0.946899C5.00812 0.946899 0.094017 5.86048 0.091916 11.9001C0.0908655 13.8309 0.595617 15.7154 1.55417 17.3763L0 23.053L5.807 21.5298C7.40685 22.4028 9.20841 22.8623 11.0415 22.8629H11.0462C17.0832 22.8629 21.9979 17.9487 22 11.9091C22.001 8.98197 20.8628 6.23024 18.7945 4.15976V4.15924ZM11.0462 21.013H11.0425C9.40903 21.0125 7.80658 20.5733 6.40842 19.744L6.07592 19.5466L2.62986 20.4504L3.54954 17.0905L3.33314 16.746C2.42186 15.2963 1.94022 13.6208 1.94127 11.9007C1.94337 6.88101 6.0276 2.79678 11.0499 2.79678C13.4817 2.79783 15.7676 3.74588 17.4866 5.46707C19.2058 7.18775 20.1517 9.47569 20.1507 11.908C20.1485 16.9282 16.0643 21.0125 11.0462 21.0125V21.013ZM16.0401 14.1944C15.7665 14.0573 14.4209 13.3955 14.1698 13.3041C13.9187 13.2127 13.7365 13.167 13.5542 13.4412C13.372 13.7154 12.8473 14.332 12.6876 14.5142C12.5279 14.697 12.3682 14.7196 12.0946 14.5825C11.821 14.4454 10.9391 14.1566 9.89334 13.2242C9.07977 12.4984 8.53032 11.6024 8.3707 11.3281C8.21101 11.054 8.35389 10.9059 8.49041 10.7698C8.61331 10.6469 8.76407 10.45 8.90114 10.2903C9.03827 10.1306 9.08343 10.0162 9.17479 9.83386C9.26622 9.65108 9.22051 9.49146 9.15224 9.35432C9.08392 9.21725 8.53667 7.86999 8.30818 7.32219C8.08598 6.78857 7.86017 6.86105 7.69261 6.85212C7.53292 6.84424 7.35069 6.84267 7.16791 6.84267C6.98512 6.84267 6.68886 6.91095 6.43781 7.18512C6.18677 7.45927 5.47978 8.12159 5.47978 9.46829C5.47978 10.815 6.46042 12.1171 6.59749 12.2999C6.73457 12.4827 8.52769 15.247 11.2731 16.4329C11.926 16.715 12.436 16.8836 12.8336 17.0096C13.4891 17.2182 14.0857 17.1888 14.5574 17.1184C15.0832 17.0396 16.1767 16.456 16.4047 15.8168C16.6326 15.1776 16.6326 14.6292 16.5644 14.5153C16.4961 14.4013 16.3133 14.3325 16.0396 14.1954L16.0401 14.1944Z" fill="white"/>
</svg>
